<?xml version="1.0" encoding="utf-8"?>
<!DOCTYPE svg PUBLIC "-//W3C//DTD SVG 20010904//EN" "http://www.w3.org/TR/2001/REC-SVG-20010904/DTD/svg10.dtd">
<svg version="1.0" xmlns="http://www.w3.org/2000/svg" width="978pt" height="1058pt" viewBox="0 0 978 1058" preserveAspectRatio="xMidYMid meet">
<g fill="#7E7E7EFF">
<path d="M 154.00 909.95 C 143.55 907.25 131.14 900.90 124.52 894.85 C 120.36 891.04 117.85 887.53 114.71 881.12 L 110.50 872.50 L 110.23 696.56 C 109.96 522.05 109.98 520.58 111.99 514.56 C 114.23 507.88 120.94 497.61 125.66 493.63 C 130.87 489.25 141.79 484.79 148.67 484.23 C 169.57 482.56 186.39 494.22 193.46 515.28 L 196.00 522.85 L 196.01 659.68 C 196.01 756.42 196.33 797.67 197.12 800.48 C 197.73 802.69 199.89 806.13 201.98 808.22 L 205.74 811.98 L 480.49 811.99 C 685.89 812.01 756.21 811.72 759.10 810.85 C 761.23 810.21 763.76 808.82 764.73 807.74 C 766.40 805.90 766.53 797.81 767.07 667.15 C 767.46 571.99 767.98 527.40 768.72 525.00 C 776.38 500.24 784.41 489.93 799.11 485.97 C 808.36 483.48 825.92 485.67 832.12 490.08 C 833.60 491.14 835.20 492.00 835.69 492.00 C 837.22 492.00 846.69 502.30 849.94 507.50 C 851.66 510.25 854.29 516.10 855.78 520.50 L 858.50 528.50 L 858.50 681.00 C 858.50 795.63 858.18 837.93 857.21 851.33 C 856.50 861.13 855.53 869.91 855.06 870.83 C 854.59 871.75 853.00 875.74 851.53 879.70 C 847.86 889.62 842.34 896.07 833.05 901.33 C 823.10 906.96 821.13 907.76 811.58 910.05 C 803.67 911.94 796.69 911.98 482.50 911.94 C 168.34 911.89 161.34 911.85 154.00 909.95Z"/></g>
<g fill="#7E7E7EFF">
<path d="M 470.50 671.81 C 468.85 671.27 465.25 670.11 462.50 669.24 C 452.95 666.20 442.98 656.38 437.61 644.71 C 435.56 640.24 435.42 639.64 433.46 626.00 C 432.18 617.04 431.97 596.16 432.05 483.27 C 432.10 410.54 431.86 350.58 431.51 350.02 C 431.10 349.35 411.57 348.97 374.69 348.91 C 343.79 348.86 316.25 348.53 313.50 348.16 C 309.04 347.57 308.29 347.10 306.53 343.82 C 305.01 340.98 304.78 339.56 305.53 337.55 C 306.97 333.69 473.50 167.53 477.92 165.54 C 481.14 164.08 481.91 164.07 485.02 165.37 C 487.31 166.33 517.47 195.89 573.25 251.84 C 647.90 326.72 658.00 337.21 658.00 339.85 C 658.00 341.51 657.23 343.63 656.29 344.57 C 651.92 348.94 650.99 349.00 589.69 349.00 C 533.36 349.00 531.25 349.07 529.57 350.92 C 527.93 352.74 527.85 360.93 528.16 492.67 C 528.48 625.55 528.41 632.82 526.68 638.93 C 523.01 651.85 516.21 661.39 507.16 666.31 C 497.71 671.46 478.32 674.36 470.50 671.81Z"/></g>
</svg>
