<?xml version="1.0" encoding="utf-8"?>
<!DOCTYPE svg PUBLIC "-//W3C//DTD SVG 20010904//EN" "http://www.w3.org/TR/2001/REC-SVG-20010904/DTD/svg10.dtd">
<svg version="1.0" xmlns="http://www.w3.org/2000/svg" width="1026pt" height="1026pt" viewBox="0 0 1026 1026" preserveAspectRatio="xMidYMid meet">
<g fill="#FB6477FF">
<path d="M 643.35 904.50 C 642.24 903.67 641.96 881.44 641.75 776.00 L 641.50 648.50 L 637.02 639.50 C 628.24 621.85 609.06 606.65 588.00 600.66 C 580.67 598.58 562.40 595.37 547.00 593.47 C 518.24 589.91 453.56 590.50 420.50 594.62 C 367.83 601.19 337.29 623.12 326.78 661.91 C 325.05 668.32 324.63 673.68 324.11 696.34 L 323.50 723.18 L 320.69 725.59 C 318.02 727.89 317.24 728.00 303.90 728.00 C 290.38 728.00 289.83 727.92 287.45 725.55 C 285.12 723.21 285.00 722.49 284.91 710.30 C 284.73 684.17 285.13 673.26 286.58 664.00 C 288.44 652.16 289.31 648.87 293.70 637.00 C 303.83 609.63 326.45 585.46 354.50 572.03 C 382.10 558.81 410.16 553.85 468.00 551.96 C 502.99 550.82 528.73 551.74 554.75 555.05 C 597.06 560.44 615.08 566.14 637.00 581.06 C 658.91 595.99 676.59 620.30 684.57 646.50 C 685.57 649.80 686.53 652.68 686.69 652.90 C 686.84 653.13 733.57 653.41 790.52 653.52 C 847.48 653.64 894.30 653.97 894.58 654.24 C 895.25 654.92 895.30 904.03 894.62 904.71 C 893.59 905.75 644.75 905.54 643.35 904.50ZM 744.60 833.10 C 749.20 829.69 833.96 744.64 836.36 741.03 C 838.37 738.00 838.49 730.85 836.60 727.20 C 834.53 723.20 822.70 712.21 819.64 711.45 C 818.18 711.08 815.30 711.09 813.24 711.48 C 810.00 712.09 804.66 717.00 772.96 748.59 C 752.86 768.61 735.95 785.00 735.37 785.00 C 734.79 785.00 729.19 779.71 722.92 773.25 C 709.49 759.41 707.66 758.02 702.90 758.01 C 698.51 758.00 693.59 761.37 686.25 769.41 C 681.29 774.84 681.00 775.46 681.00 780.49 C 681.00 785.03 681.47 786.38 684.25 789.68 C 688.62 794.88 726.29 832.39 729.17 834.40 C 732.97 837.07 740.06 836.48 744.60 833.10Z"/></g>
<g fill="#FB6477FF">
<path d="M 481.00 504.28 C 461.02 502.01 436.60 491.19 420.91 477.65 C 394.81 455.12 380.81 424.80 380.68 390.50 C 380.56 358.62 392.66 330.05 415.59 308.03 C 449.08 275.87 496.81 266.82 539.57 284.51 C 573.20 298.41 597.48 326.71 606.95 363.02 C 610.13 375.21 610.83 395.37 608.54 409.04 C 600.46 457.40 563.01 494.99 514.50 503.43 C 506.29 504.86 489.76 505.28 481.00 504.28ZM 515.50 462.56 C 528.22 459.03 542.45 450.20 551.81 440.01 C 559.82 431.31 566.72 417.20 569.54 403.80 C 577.03 368.20 554.12 330.60 517.93 319.10 C 487.99 309.58 453.74 320.61 435.23 345.74 C 429.07 354.09 425.91 360.30 422.89 370.00 C 420.91 376.38 420.57 379.59 420.59 391.50 C 420.62 404.01 420.90 406.28 423.23 412.81 C 432.69 439.31 452.86 457.64 478.98 463.49 C 487.39 465.38 507.19 464.87 515.50 462.56Z"/></g>
</svg>
